<svg width="28" height="28" viewBox="0 0 28 28" fill="none" xmlns="http://www.w3.org/2000/svg">
<circle cx="14" cy="14" r="13.5" fill="#FF651C" stroke="#FFE7B6" stroke-dasharray="2 2"/>
<path d="M15.826 12.38C15.7952 12.0414 15.6583 11.7783 15.4151 11.5906C15.1751 11.3997 14.8319 11.3043 14.3857 11.3043C14.0902 11.3043 13.844 11.3428 13.647 11.4197C13.45 11.4967 13.3023 11.6029 13.2038 11.7383C13.1054 11.8706 13.0546 12.023 13.0515 12.1953C13.0453 12.3369 13.073 12.4615 13.1346 12.5692C13.1992 12.677 13.2915 12.7724 13.4116 12.8555C13.5347 12.9355 13.6824 13.0063 13.8548 13.0678C14.0271 13.1294 14.221 13.1832 14.4364 13.2294L15.2489 13.4141C15.7167 13.5156 16.1291 13.651 16.4862 13.8203C16.8462 13.9896 17.1478 14.1912 17.391 14.4251C17.6372 14.659 17.8234 14.9283 17.9496 15.233C18.0758 15.5376 18.1404 15.8793 18.1435 16.2578C18.1404 16.8549 17.9896 17.3673 17.6911 17.7951C17.3925 18.2229 16.9632 18.5507 16.4031 18.7784C15.846 19.0062 15.1735 19.12 14.3857 19.12C13.5947 19.12 12.9053 19.0015 12.3175 18.7646C11.7296 18.5276 11.2726 18.1675 10.9464 17.6843C10.6201 17.2011 10.4524 16.5902 10.4432 15.8516H12.6314C12.6499 16.1562 12.7314 16.4102 12.8761 16.6133C13.0207 16.8164 13.2192 16.9703 13.4716 17.0749C13.727 17.1796 14.0225 17.2319 14.358 17.2319C14.6657 17.2319 14.9273 17.1903 15.1428 17.1072C15.3613 17.0241 15.529 16.9087 15.646 16.761C15.7629 16.6133 15.8229 16.444 15.826 16.2532C15.8229 16.0747 15.7675 15.9223 15.6598 15.7962C15.5521 15.6669 15.3859 15.5561 15.1612 15.4638C14.9396 15.3684 14.6565 15.2807 14.3118 15.2006L13.3239 14.9698C12.5052 14.7821 11.8604 14.4789 11.3896 14.0604C10.9187 13.6387 10.6848 13.0694 10.6879 12.3523C10.6848 11.7675 10.8417 11.2551 11.1587 10.815C11.4757 10.3749 11.9143 10.0317 12.4744 9.78551C13.0346 9.5393 13.6732 9.41619 14.3903 9.41619C15.1228 9.41619 15.7583 9.54084 16.2969 9.79013C16.8385 10.0363 17.2586 10.3826 17.5572 10.8288C17.8557 11.2751 18.008 11.7921 18.0142 12.38H15.826Z" fill="white"/>
</svg>
